{"title":"Iss Qadar Pyar Hai 1080p Full HD Song - Ankit Tiwari - Bhaag Joh","uid":12367913,"size":23383603,"categoryP":"video","categoryS":"music_videos","magnet":"?xt=urn:btih:144388bb61ddcf0456ae8de3e17eb150322ea2f9&amp;dn=Iss+Qadar+Pyar+Hai+1080p+Full+HD+Song+-+Ankit+Tiwari+-+Bhaag+Joh&amp;tr=udp%3A%2F%2Ftracker.openbittorrent.com%3A80&amp;tr=udp%3A%2F%2Fopen.demonii.com%3A1337&amp;tr=udp%3A%2F%2Ftracker.coppersurfer.tk%3A6969&amp;tr=udp%3A%2F%2Fexodus.desync.com%3A6969","seeders":2,"leechers":0,"uploader":"Aainul","files":5,"time":1441625652,"description":"Iss Qadar Pyar Hai 1080p Full HD Song - Ankit Tiwari - Bhaag Johnny - Team truHD HEVC ource: WEB-DL \n\nEncoder: truHD HEVC Encoding Team \n\nEncoded File Info: \n\nGeneral \n\nFormat : MPEG-4 \nFormat profile : Base Media \nCodec ID : iso4 \nFile size : 22.1 MiB \nDuration : 2mn 25s \nOverall bit rate mode : Variable \nOverall bit rate : 1 269 Kbps \nEncoded date : UTC 2015-09-07 07:51:09 \nTagged date : UTC 2015-09-07 07:51:09 \n\nVideo \nID : 1 \nFormat : HEVC \nFormat/Info : High Efficiency Video Coding \nCodec ID : hvc1 \nCodec ID/Info : High Efficiency Video Coding \nDuration : 2mn 25s \nBit rate : 1 160 Kbps \nMaximum bit rate : 3 476 Kbps \nWidth : 1 920 pixels \nHeight : 1 080 pixels \nDisplay aspect ratio : 16:9 \nFrame rate mode : Constant \nFrame rate : 25.000 fps \nBits/(Pixel*Frame) : 0.022 \nStream size : 20.1 MiB (91%) \nTitle : Video \nEncoded date : UTC 2015-09-07 07:51:09 \nTagged date : UTC 2015-09-07 07:51:11 \n\nAudio \nID : 2 \nFormat : AAC \nFormat/Info : Advanced Audio Codec \nFormat profile : LC \nCodec ID : 40 \nDuration : 2mn 25s \nBit rate mode : Variable \nBit rate : 106 Kbps \nMaximum bit rate : 118 Kbps \nChannel(s) : 2 channels \nChannel positions : Front: L R \nSampling rate : 44.1 KHz \nCompression mode : Lossy \nStream size : 1.84 MiB (8%) \nTitle : \nEncoded date : UTC 2015-09-07 06:45:58 \nTagged date : UTC 2015-09-07 07:51:11 \n\n\nScreenShots: \n\n &lt;a href=&quot;\nhttps://yuq.me/users/36/459/oSiFNV9L36.jpg&quot; rel=&quot;nofollow&quot; target=&quot;_NEW&quot;&gt;\nhttps://yuq.me/users/36/459/oSiFNV9L36.jpg&lt;/a&gt;\n\n\nLike Us On FB And Request Accepted\n\nKickAssTorrents:  &lt;a href=&quot;\nhttps://kat.cr/user/Aainul/&quot; rel=&quot;nofollow&quot; target=&quot;_NEW&quot;&gt;\nhttps://kat.cr/user/Aainul/&lt;/a&gt;\nGloTorrents:  &lt;a href=&quot;\nhttps://glodls.to/user/Aainul&quot; rel=&quot;nofollow&quot; target=&quot;_NEW&quot;&gt;\nhttps://glodls.to/user/Aainul&lt;/a&gt;\nThePirateBay:  &lt;a href=&quot;\nhttps://thepiratebay.vg/user/Aainul/&quot; rel=&quot;nofollow&quot; target=&quot;_NEW&quot;&gt;\nhttps://thepiratebay.vg/user/Aainul/&lt;/a&gt;\n1337x Torrents:  &lt;a href=&quot;\nhttp://1337.to/user/Aainul/&quot; rel=&quot;nofollow&quot; target=&quot;_NEW&quot;&gt;\nhttp://1337.to/user/Aainul/&lt;/a&gt;\n\n\nNote: All Videos Uploaded By Me Are For Review Purpose. If You Like IT, Google IT And Buy IT - Thanks\n\n\nKing Regards\ntruHD HEVC Team\n\nShare Among Friends And Relatives","torrent":{"xt":"urn:btih:144388bb61ddcf0456ae8de3e17eb150322ea2f9","amp;dn":"Iss+Qadar+Pyar+Hai+1080p+Full+HD+Song+-+Ankit+Tiwari+-+Bhaag+Joh","amp;tr":["udp%3A%2F%2Ftracker.openbittorrent.com%3A80","udp%3A%2F%2Fopen.demonii.com%3A1337","udp%3A%2F%2Ftracker.coppersurfer.tk%3A6969","udp%3A%2F%2Fexodus.desync.com%3A6969"],"infoHash":"144388bb61ddcf0456ae8de3e17eb150322ea2f9","infoHashBuffer":{"type":"Buffer","data":[20,67,136,187,97,221,207,4,86,174,141,227,225,126,177,80,50,46,162,249]},"announce":[],"urlList":[]}}